<?xml version="1.0" standalone="no"?>
<!DOCTYPE svg PUBLIC "-//W3C//DTD SVG 20010904//EN"
 "http://www.w3.org/TR/2001/REC-SVG-20010904/DTD/svg10.dtd">
<svg version="1.0" xmlns="http://www.w3.org/2000/svg"
 width="1280.000000pt" height="1049.000000pt" viewBox="0 0 1280.000000 1049.000000"
 preserveAspectRatio="xMidYMid meet">
<g transform="translate(0.000000,1049.000000) scale(0.100000,-0.100000)"
fill="#000000" stroke="none">
<path d="M4859 10485 c-3 -2 -45 -16 -95 -30 -384 -111 -1041 -487 -1501 -860
-46 -38 -61 -44 -135 -55 -95 -14 -301 -65 -451 -111 -121 -37 -375 -135 -395
-152 -8 -6 -47 -77 -87 -157 l-71 -145 -150 -1 c-394 -4 -720 -139 -994 -414
-256 -256 -391 -543 -392 -835 0 -247 87 -481 356 -960 146 -258 180 -361 181
-540 0 -111 -2 -124 -28 -177 -76 -154 -344 -296 -621 -329 -74 -9 -118 -8
-226 5 -74 9 -153 20 -175 26 -22 5 -41 7 -44 5 -8 -9 35 -63 108 -135 182
-178 442 -306 736 -362 104 -19 153 -22 360 -23 293 0 422 21 639 105 44 17
82 27 86 23 4 -4 16 -58 28 -120 52 -268 159 -430 347 -519 63 -30 283 -89
294 -79 2 3 -15 25 -38 51 -44 47 -77 111 -117 228 -41 120 -30 124 42 13 68
-103 184 -214 269 -258 111 -58 182 -76 400 -104 110 -15 261 -44 310 -60 19
-6 19 -6 2 8 -10 9 -42 21 -70 27 -67 16 -105 38 -199 117 -308 260 -388 611
-267 1173 26 121 108 401 121 418 9 10 29 -5 92 -66 124 -121 236 -186 435
-252 198 -67 366 -95 633 -106 l167 -7 25 -36 c63 -93 58 -116 -27 -115 -38 0
-75 11 -135 38 -126 57 -171 51 -218 -30 -60 -103 -104 -337 -90 -483 17 -173
64 -359 118 -465 33 -66 107 -150 153 -173 16 -9 33 -20 36 -25 13 -20 -23
-157 -62 -237 -31 -62 -60 -102 -113 -155 -80 -81 -136 -120 -281 -196 -128
-67 -205 -113 -205 -121 0 -3 29 -9 64 -12 36 -3 93 -13 128 -22 65 -17 204
-81 247 -114 24 -19 25 -19 8 -63 -23 -58 -93 -154 -151 -205 -101 -89 -242
-99 -312 -21 -37 40 -48 71 -53 148 -6 72 -7 75 -32 78 -39 5 -87 -42 -125
-121 -105 -220 -95 -502 22 -622 46 -48 68 -54 112 -31 43 22 70 58 90 116 10
30 23 55 28 57 5 1 20 -16 34 -38 36 -59 113 -125 167 -143 216 -74 496 123
578 407 9 31 22 57 29 57 7 0 24 -12 38 -27 24 -26 27 -37 33 -148 18 -314
-45 -695 -230 -1403 -68 -264 -88 -325 -113 -354 -14 -17 -73 -18 -974 -18
l-958 0 0 -662 0 -663 5185 0 5185 0 0 662 0 663 -427 2 -428 3 -21 44 c-34
71 -58 74 -179 24 -59 -25 -66 -25 -343 -27 l-283 -2 -30 49 c-123 201 -286
777 -229 812 12 7 186 -35 291 -70 103 -35 106 -34 71 28 -63 111 -94 251 -96
427 -1 98 3 136 17 177 10 29 22 55 25 57 4 2 36 -18 72 -45 90 -69 224 -134
316 -155 l77 -17 19 24 c10 13 36 60 57 104 122 250 103 611 -46 910 -48 94
-128 225 -146 237 -6 3 -62 9 -126 13 -161 8 -155 6 -190 77 -47 93 -43 110
30 155 165 102 337 253 471 412 162 195 322 469 401 691 l34 94 79 13 c124 21
229 77 329 176 92 92 141 172 176 287 32 101 31 253 0 355 -12 39 -25 80 -28
93 l-5 22 152 0 152 0 -6 38 c-3 20 -10 78 -16 127 -45 395 -142 739 -303
1079 l-51 108 -161 78 c-337 164 -644 257 -1110 334 -361 60 -673 81 -1120 73
-176 -3 -403 -13 -505 -21 -209 -18 -209 -18 -424 -147 -333 -198 -691 -543
-919 -885 -65 -99 -67 -103 -88 -220 -27 -152 -37 -502 -19 -708 14 -167 51
-399 85 -538 33 -132 32 -135 -12 -153 -41 -17 -50 -13 -55 30 -3 27 -7 30
-40 33 -20 2 -53 -4 -74 -13 -20 -8 -39 -13 -42 -11 -2 3 1 25 7 50 25 99 2
166 -52 152 -53 -13 -139 -125 -152 -197 -13 -68 -20 -69 -77 -5 -28 32 -66
64 -83 71 -38 17 -81 9 -100 -18 -17 -25 -20 -109 -4 -139 9 -16 6 -25 -13
-47 -14 -14 -32 -39 -42 -54 -14 -23 -20 -26 -32 -16 -8 6 -14 17 -14 24 0 22
-60 75 -84 75 -65 0 -102 -137 -67 -243 17 -49 5 -63 -61 -70 -60 -7 -110 -39
-135 -84 -15 -28 -16 -38 -6 -64 14 -37 10 -49 -18 -49 -11 0 -35 -7 -54 -14
-32 -14 -35 -18 -35 -59 0 -50 29 -85 93 -112 36 -15 48 -37 27 -50 -21 -13
-60 -84 -71 -130 -11 -42 -10 -49 10 -75 11 -16 21 -32 21 -35 0 -14 -113 0
-164 20 -17 8 -17 6 -2 -23 39 -75 119 -107 270 -107 92 0 110 -3 120 -17 8
-13 6 -25 -7 -47 -17 -29 -23 -61 -10 -61 3 0 21 11 39 25 18 14 36 25 39 25
4 0 25 -15 48 -34 23 -18 143 -102 267 -186 124 -84 268 -185 320 -224 52 -38
160 -114 240 -169 l145 -98 2 -42 c1 -23 3 -56 3 -73 0 -21 9 -39 30 -58 22
-19 30 -35 30 -60 0 -49 30 -72 91 -69 47 2 50 1 64 -32 8 -20 22 -36 32 -36
10 -1 34 -2 53 -3 l35 -1 7 -135 c12 -232 35 -440 49 -440 7 0 61 86 73 115 2
6 24 -11 50 -37 33 -35 53 -48 73 -48 26 0 29 4 46 72 17 67 31 98 46 98 3 0
37 -20 74 -45 38 -25 75 -45 82 -45 14 0 30 35 40 88 6 29 10 33 31 29 13 -2
24 -3 24 -1 0 2 -33 48 -74 102 -115 153 -207 295 -199 303 5 5 36 0 70 -11
138 -43 229 -54 458 -54 231 -1 358 12 521 54 43 11 81 17 86 12 4 -4 -1 -37
-12 -72 -47 -149 -101 -425 -128 -645 l-18 -140 -54 2 c-208 10 -459 6 -505
-8 l-50 -14 2 -64 c5 -121 118 -402 236 -590 22 -35 87 -122 144 -194 57 -71
101 -133 97 -138 -3 -5 -1054 -9 -2630 -9 -2600 0 -2625 0 -2682 20 -73 26
-102 47 -130 98 -36 64 -33 111 9 163 141 175 344 525 471 813 82 187 178 509
178 598 0 42 21 68 54 68 13 0 28 6 33 13 5 6 24 66 41 132 17 66 40 153 51
193 52 188 71 490 50 797 -7 110 -13 231 -14 268 l0 69 90 1 c137 3 215 50
215 131 0 57 -24 128 -67 202 -79 134 -113 205 -113 234 0 22 11 36 49 64 65
48 173 163 194 208 9 19 22 58 28 86 11 45 10 56 -10 102 -12 29 -26 77 -32
108 -16 100 -63 112 -184 49 -38 -20 -93 -64 -148 -119 -48 -49 -89 -88 -91
-88 -2 0 -13 31 -25 68 -35 117 -96 182 -170 182 -31 0 -45 -8 -81 -46 -47
-47 -88 -74 -114 -74 -18 0 -90 135 -83 155 3 6 40 17 84 24 348 55 714 179
970 331 l53 32 10 -26 c5 -14 8 -31 6 -38 -3 -7 -7 -52 -11 -99 l-6 -86 113
-6 c79 -3 147 -14 226 -35 l113 -29 19 25 c25 31 86 219 99 303 26 175 21 363
-15 501 l-15 58 34 72 c65 138 79 178 74 200 -3 13 -35 109 -71 213 -36 105
-80 250 -96 324 l-30 133 31 92 c23 65 33 114 36 171 l3 80 -30 -92 c-37 -111
-54 -120 -64 -32 -12 116 -7 349 7 355 19 7 205 -59 322 -115 288 -137 510
-319 723 -596 l23 -30 -4 165 c-17 588 -220 1093 -620 1541 -299 335 -635 590
-1122 851 -102 55 -609 314 -696 356 -3 1 -7 0 -10 -3z m-2872 -2392 c-7 -143
5 -335 28 -461 45 -237 169 -487 329 -660 31 -33 56 -66 56 -73 0 -18 -120
-219 -132 -219 -28 0 -149 172 -216 306 -92 184 -139 380 -149 624 -9 233 39
610 79 610 8 0 9 -39 5 -127z m6708 -2182 c35 -69 48 -204 42 -457 -6 -269 3
-418 34 -544 58 -238 259 -514 487 -669 153 -104 363 -194 509 -220 231 -41
545 -51 745 -24 70 9 130 14 134 11 6 -7 -45 -86 -69 -106 -8 -7 -41 -17 -72
-22 -81 -13 -91 -17 -103 -45 -28 -60 -238 -160 -567 -270 -348 -116 -543
-157 -760 -159 l-150 -1 -7 65 c-9 83 -33 156 -65 198 -16 21 -36 79 -58 165
-45 180 -123 433 -201 656 -56 158 -93 252 -180 458 -22 51 1 47 35 -6 68
-105 67 -107 67 137 -1 248 13 350 89 649 40 158 58 213 70 213 3 0 11 -13 20
-29z m-451 -546 c26 -66 20 -79 -37 -83 -26 -2 -47 1 -47 6 0 17 51 122 59
122 5 0 16 -20 25 -45z m-223 -18 c-13 -13 -26 -3 -16 12 3 6 11 8 17 5 6 -4
6 -10 -1 -17z m324 -218 c10 -21 15 -42 11 -46 -9 -10 -66 48 -66 67 0 44 32
32 55 -21z m-525 -558 c0 -6 -4 -13 -10 -16 -5 -3 -10 1 -10 9 0 9 5 16 10 16
6 0 10 -4 10 -9z m-750 -121 c0 -5 -7 -10 -16 -10 -8 0 -12 5 -9 10 3 6 10 10
16 10 5 0 9 -4 9 -10z m2920 -2439 c108 -25 270 -76 294 -94 15 -11 20 -35 27
-134 4 -67 20 -177 35 -245 15 -67 27 -136 28 -153 l1 -30 -205 0 -204 0 -38
125 c-54 177 -88 352 -88 452 0 89 9 111 44 103 12 -2 59 -13 106 -24z"/>
<path d="M8765 10126 c-313 -65 -754 -293 -1170 -606 -232 -174 -454 -377
-439 -401 8 -13 16 -8 404 250 549 366 1011 635 1220 712 45 16 116 36 158 43
l77 14 -95 0 c-52 0 -122 -6 -155 -12z"/>
<path d="M8960 9319 c-576 -137 -1443 -422 -1485 -489 -22 -35 20 -29 176 25
247 87 1196 405 1344 452 153 48 139 53 -35 12z"/>
<path d="M7303 6576 c-17 -14 -36 -40 -43 -58 -6 -18 -16 -43 -21 -56 l-9 -23
-34 20 c-47 29 -82 27 -117 -8 -25 -26 -29 -37 -29 -86 0 -71 20 -119 73 -174
83 -86 211 -126 310 -97 87 25 90 33 85 188 -6 152 -22 207 -78 270 -47 52
-94 61 -137 24z"/>
<path d="M6915 5691 c-30 -13 -52 -42 -62 -81 -8 -32 -12 -35 -51 -38 -168
-12 -20 -314 154 -314 40 0 52 5 81 35 l35 34 1 109 c1 94 -2 116 -22 162 -25
55 -71 102 -99 101 -9 0 -26 -4 -37 -8z"/>
<path d="M6382 5114 c-26 -18 -102 -166 -102 -196 0 -32 -26 -31 -74 3 -36 26
-59 34 -105 37 -53 4 -61 2 -92 -26 -31 -27 -34 -35 -37 -100 -5 -90 14 -149
79 -247 73 -108 187 -190 297 -214 84 -18 130 -14 188 16 51 26 54 29 66 82
18 81 16 300 -5 390 -24 108 -63 204 -96 235 -36 34 -88 43 -119 20z"/>
</g>
</svg>
